<svg width="512" height="512" viewBox="0 0 512 512" fill="none" xmlns="http://www.w3.org/2000/svg">
  <rect width="512" height="512" rx="116" fill="#080B10"/>
  <path d="M120 282H92C80.9543 282 72 273.046 72 262V250C72 238.954 80.9543 230 92 230H120V282Z" fill="#10B981"/>
  <path d="M392 230H420C431.046 230 440 238.954 440 250V262C440 273.046 431.046 282 420 282H392V230Z" fill="#10B981"/>
  <path d="M136 202C136 190.954 144.954 182 156 182H174C185.046 182 194 190.954 194 202V310C194 321.046 185.046 330 174 330H156C144.954 330 136 321.046 136 310V202Z" fill="#F97316"/>
  <path d="M318 202C318 190.954 326.954 182 338 182H356C367.046 182 376 190.954 376 202V310C376 321.046 367.046 330 356 330H338C326.954 330 318 321.046 318 310V202Z" fill="#F97316"/>
  <path d="M194 236H318V276H194V236Z" fill="#F8FAFC"/>
  <path d="M218 354L256 122L294 354H254L248 314H224L218 354Z" fill="#F97316"/>
</svg>
